<?xml version="1.0" encoding="UTF-8" standalone="no"?>
<!-- Created with Inkscape (http://www.inkscape.org/) -->

<svg
   width="71.519775"
   height="71.519775"
   viewBox="0 0 18.92294 18.922941"
   version="1.1"
   id="svg1"
   xml:space="preserve"
   inkscape:version="1.3.2 (091e20e, 2023-11-25, custom)"
   sodipodi:docname="dessin-1.svg"
   xmlns:inkscape="http://www.inkscape.org/namespaces/inkscape"
   xmlns:sodipodi="http://sodipodi.sourceforge.net/DTD/sodipodi-0.dtd"
   xmlns="http://www.w3.org/2000/svg"
   xmlns:svg="http://www.w3.org/2000/svg"><sodipodi:namedview
     id="namedview1"
     pagecolor="#ffffff"
     bordercolor="#000000"
     borderopacity="0.25"
     inkscape:showpageshadow="2"
     inkscape:pageopacity="0.0"
     inkscape:pagecheckerboard="true"
     inkscape:deskcolor="#d1d1d1"
     inkscape:document-units="mm"
     inkscape:zoom="2.0196632"
     inkscape:cx="1746.0832"
     inkscape:cy="2014.1972"
     inkscape:window-width="1920"
     inkscape:window-height="1013"
     inkscape:window-x="-9"
     inkscape:window-y="-9"
     inkscape:window-maximized="1"
     inkscape:current-layer="layer1" /><defs
     id="defs1" /><g
     inkscape:label="Calque 1"
     inkscape:groupmode="layer"
     id="layer1"
     transform="translate(-448.99192,-515.57452)"><circle
       style="fill:#b4ebec;fill-opacity:1;stroke:#f6b863;stroke-width:0;stroke-linejoin:bevel"
       id="path7-7-3-5-0"
       cx="458.45337"
       cy="525.03601"
       r="9.4614687"
       inkscape:export-filename="..\Desktop\coursenseirb\www\res\img\icons\cross.svg"
       inkscape:export-xdpi="96"
       inkscape:export-ydpi="96" /><path
       style="fill:#034749;fill-opacity:1;stroke:#034749;stroke-width:0.174721;stroke-opacity:1"
       d="m 458.58886,530.18911 c -0.0157,-0.041 -0.0417,-0.28968 -0.0578,-0.5526 l -0.0292,-0.47804 0.18641,-0.18641 c 0.16499,-0.165 0.21143,-0.18641 0.4043,-0.18641 0.25259,0 0.44169,0.0967 0.55107,0.28191 0.0964,0.16317 0.21889,1.10754 0.14643,1.12888 -0.0272,0.008 -0.30201,0.0264 -0.6109,0.0409 -0.48958,0.023 -0.56526,0.0168 -0.59021,-0.0482 z m -2.68513,-0.0847 c -0.0254,-0.008 -0.19883,-0.0397 -0.38534,-0.0706 l -0.33911,-0.0561 0.0155,-0.50038 c 0.017,-0.54943 0.0774,-0.69675 0.33787,-0.82434 0.18858,-0.0924 0.46267,-0.002 0.58114,0.1929 0.0763,0.12515 0.0901,0.23428 0.0902,0.71403 l 1.8e-4,0.56629 -0.12713,-0.003 c -0.0699,-0.002 -0.14793,-0.0102 -0.17335,-0.0182 z m 6.32571,-0.7163 c -1.01735,-0.84316 -1.78642,-1.90507 -2.02914,-2.80177 l -0.0831,-0.30711 -0.25759,0.0282 c -0.58923,0.0646 -2.45174,0.0843 -3.07751,0.0324 -2.63673,-0.21851 -4.71242,-0.9391 -5.72431,-1.98724 -0.74726,-0.77403 -0.80995,-1.60521 -0.18003,-2.38712 0.77723,-0.96476 2.5616,-1.72395 4.83964,-2.05912 0.73933,-0.10878 0.83865,-0.11026 0.87593,-0.0131 0.016,0.0418 0.021,0.0841 0.0111,0.094 -0.01,0.01 -0.23403,0.0499 -0.49803,0.0888 -2.55964,0.37735 -4.61232,1.39416 -5.19385,2.57282 -0.0909,0.18428 -0.17791,0.44218 -0.19328,0.5731 -0.0317,0.26928 -0.006,0.32139 0.33347,0.67112 l 0.20923,0.21572 0.32308,-0.24304 c 0.70217,-0.52824 1.33256,-0.80911 2.4435,-1.08869 1.32876,-0.33441 2.3175,-0.44055 4.09416,-0.43949 1.88866,8.3e-4 2.97666,0.1374 4.46103,0.5588 1.14042,0.32374 2.09197,0.89794 2.6702,1.61126 0.14346,0.17697 0.15071,0.18006 0.21695,0.0924 0.18427,-0.24367 0.26601,-0.50149 0.24797,-0.78215 -0.0254,-0.39477 -0.18016,-0.68044 -0.59035,-1.0896 -0.87249,-0.87031 -1.92689,-1.40849 -3.30061,-1.68472 -0.93358,-0.18772 -1.24297,-0.21521 -2.71765,-0.24147 -1.7105,-0.0305 -2.54281,0.02 -4.66269,0.28248 -0.38966,0.0482 0.43335,-0.19403 1.15571,-0.34022 3.01317,-0.60982 6.57108,-0.30283 8.81598,0.76067 1.23966,0.58728 1.95215,1.3295 2.03358,2.11842 0.07,0.67775 -0.42571,1.42952 -1.3234,2.00721 -0.81783,0.52631 -2.24422,1.0111 -3.71295,1.26193 -0.17162,0.0293 -0.31205,0.0688 -0.31205,0.0878 0,0.0771 0.54973,0.89908 0.80749,1.20741 0.27646,0.33071 0.71422,0.74095 1.16917,1.09565 0.1337,0.10425 0.22731,0.19908 0.20803,0.21075 -0.0739,0.0447 -0.54175,0.1696 -0.63287,0.16894 -0.0526,-3.5e-4 -0.24465,-0.12422 -0.42678,-0.27517 z m 0.36155,-3.11457 c 0.6316,-0.23454 1.19467,-0.47876 1.19467,-0.51815 0,-0.0811 -0.2077,-0.40598 -0.38683,-0.60522 -0.65458,-0.72805 -2.02483,-1.31782 -3.63504,-1.56456 -0.68032,-0.10425 -2.023,-0.14048 -2.72748,-0.0736 -1.17233,0.11129 -2.28845,0.40325 -3.1204,0.81624 -0.46131,0.229 -1.05374,0.64895 -1.02731,0.72823 0.0416,0.12473 1.32284,0.52917 2.29648,0.72492 1.22094,0.24544 1.74467,0.29272 3.28431,0.29645 0.77549,0.002 1.61957,-0.0136 1.87575,-0.0344 l 0.46578,-0.0378 0.0596,0.26895 c 0.0328,0.14792 0.0881,0.32439 0.1228,0.39215 l 0.0631,0.1232 0.47469,-0.14957 c 0.26107,-0.0822 0.73798,-0.24735 1.05981,-0.36687 z m 1.94679,-0.89156 c 0.36208,-0.22488 0.367,-0.23314 0.26195,-0.43906 -0.25029,-0.49062 -1.05304,-1.14163 -1.89703,-1.53845 -3.29998,-1.55158 -8.81709,-1.12446 -10.963,0.8487 l -0.23773,0.21859 0.32954,0.19246 0.32953,0.19245 0.36138,-0.25952 c 0.46165,-0.33152 0.85091,-0.5264 1.40153,-0.70167 2.92107,-0.92983 7.37218,-0.64132 9.18455,0.59533 0.28961,0.19761 0.77869,0.66553 0.89884,0.85994 0.0519,0.084 0.10349,0.15268 0.11462,0.15268 0.0112,0 0.10827,-0.0546 0.21582,-0.12145 z m -10.96858,4.15713 c -0.0381,-0.0138 -0.21824,-0.0861 -0.40022,-0.16068 l -0.33088,-0.13557 -0.0329,-0.48304 c -0.0357,-0.52432 0.004,-0.70817 0.17972,-0.83124 0.23636,-0.16555 0.5572,-0.002 0.62986,0.32172 0.0607,0.27049 0.11241,1.32182 0.0647,1.31758 -0.0225,-0.002 -0.0721,-0.0149 -0.11027,-0.0288 z m -2.0454,-1.16437 c -0.33484,-0.31806 -0.35416,-0.34754 -0.3839,-0.58551 -0.0587,-0.46931 0.0807,-0.75137 0.33799,-0.68409 0.18301,0.0479 0.27434,0.27876 0.35769,0.90439 0.0431,0.3232 0.0699,0.61294 0.0596,0.64388 -0.0107,0.0318 -0.1717,-0.089 -0.37134,-0.27867 z m 6.78398,-0.37367 c -0.0795,-0.57774 -0.0328,-0.77261 0.22235,-0.92818 0.26596,-0.16216 0.61109,-0.0781 0.7454,0.18168 0.0549,0.10611 0.1815,0.83817 0.14997,0.86704 -0.0168,0.0153 -0.84359,0.10903 -0.96332,0.10916 -0.11223,1.2e-4 -0.12551,-0.0197 -0.1544,-0.2297 z m -3.0674,-0.50882 c 0.0148,-0.38052 0.0267,-0.42563 0.14328,-0.54214 0.17741,-0.17733 0.44667,-0.17733 0.62408,0 0.11656,0.11651 0.12848,0.16162 0.14329,0.54214 l 0.0162,0.41505 h -0.47148 -0.47148 z m -2.3105,-0.17268 -0.20014,-0.0189 0.0324,-0.35543 c 0.0178,-0.19548 0.0541,-0.39703 0.0806,-0.44788 0.11366,-0.21834 0.3218,-0.26729 0.48604,-0.11429 0.131,0.12204 0.15561,0.2327 0.13875,0.62377 l -0.0139,0.32262 -0.1618,0.004 c -0.089,0.003 -0.25187,-0.004 -0.36195,-0.0144 z M 451.1191,525.976 c 0,-0.40591 0.0775,-0.58028 0.24716,-0.5561 0.15047,0.0214 0.2612,0.28703 0.26128,0.62671 l 7e-5,0.28893 h -0.25425 -0.25426 z"
       id="path9" /></g></svg>
